<?xml version="1.0" standalone="no"?>
<!DOCTYPE svg PUBLIC "-//W3C//DTD SVG 20010904//EN"
 "http://www.w3.org/TR/2001/REC-SVG-20010904/DTD/svg10.dtd">
<svg version="1.0" xmlns="http://www.w3.org/2000/svg"
 width="700.000000pt" height="700.000000pt" viewBox="0 0 700.000000 700.000000"
 preserveAspectRatio="xMidYMid meet">
<metadata>
Created by potrace 1.11, written by Peter Selinger 2001-2013
</metadata>
<g transform="translate(0.000000,700.000000) scale(0.100000,-0.100000)"
fill="#000000" stroke="none">
<path d="M1918 6993 c-23 -6 -65 -96 -72 -153 -3 -25 -8 -56 -11 -70 -2 -13
-7 -42 -10 -65 -3 -22 -8 -47 -10 -55 -2 -8 -7 -42 -11 -75 -3 -33 -7 -63 -10
-66 -2 -3 -6 -26 -9 -50 -3 -24 -7 -55 -10 -69 -2 -14 -7 -41 -10 -60 -3 -19
-8 -47 -10 -62 -3 -16 -7 -40 -10 -55 -2 -16 -11 -75 -20 -133 -9 -58 -18
-116 -21 -130 -2 -14 -7 -41 -10 -60 -3 -19 -14 -87 -24 -150 -10 -63 -21
-133 -25 -155 -3 -22 -12 -78 -20 -125 -8 -47 -17 -103 -20 -125 -2 -22 -6
-49 -9 -60 -2 -11 -7 -40 -11 -65 -4 -25 -9 -54 -11 -65 -2 -10 -6 -37 -9 -60
-3 -22 -8 -51 -10 -65 -7 -41 -15 -89 -30 -185 -8 -49 -23 -146 -34 -215 -11
-69 -22 -138 -25 -155 -2 -16 -12 -75 -21 -130 -9 -55 -18 -111 -20 -125 -2
-14 -11 -65 -19 -115 -9 -49 -18 -110 -21 -135 -3 -25 -10 -70 -15 -100 -5
-30 -12 -71 -15 -90 -3 -19 -10 -60 -15 -90 -5 -30 -11 -71 -14 -90 -2 -19 -7
-46 -10 -60 -3 -14 -8 -43 -11 -65 -3 -22 -10 -65 -15 -95 -5 -30 -12 -73 -15
-95 -3 -22 -8 -51 -10 -65 -2 -14 -11 -70 -20 -125 -9 -55 -18 -112 -20 -127
-3 -16 -7 -40 -9 -55 -6 -34 -67 -415 -97 -603 -11 -74 -23 -144 -25 -155 -2
-11 -7 -40 -10 -65 -6 -50 -11 -82 -18 -120 -3 -14 -8 -43 -11 -65 -3 -22 -14
-92 -25 -155 -11 -63 -22 -134 -25 -156 -3 -23 -12 -77 -19 -120 -8 -44 -13
-79 -13 -80 1 0 119 -70 262 -154 143 -84 310 -182 370 -218 61 -36 130 -76
155 -90 25 -13 52 -31 61 -38 8 -8 19 -14 22 -14 4 0 37 -19 74 -42 38 -22 84
-50 103 -60 19 -11 185 -109 370 -218 184 -109 351 -207 370 -218 45 -25 340
-199 360 -212 193 -122 360 -146 579 -84 37 11 408 228 1180 691 619 372 1131
680 1137 685 8 5 9 22 3 51 -4 23 -10 62 -14 87 -3 25 -8 52 -10 60 -4 14 -63
352 -70 395 -4 28 -64 385 -69 410 -4 20 -54 310 -61 355 -2 14 -11 66 -20
115 -9 50 -18 105 -21 124 -3 18 -8 43 -10 55 -7 34 -12 65 -28 161 -23 137
-75 436 -81 467 -3 16 -7 40 -9 55 -3 25 -59 348 -71 413 -5 31 -42 244 -49
285 -3 17 -15 84 -26 150 -12 66 -23 135 -25 154 -3 19 -9 57 -15 85 -6 28
-31 169 -55 314 -28 166 -52 277 -65 301 -40 79 -121 107 -198 67 -18 -9 -229
-213 -469 -452 -240 -239 -437 -433 -439 -431 -2 2 -147 291 -322 643 -347
694 -355 707 -437 720 -52 7 -111 -20 -148 -68 -14 -17 -101 -202 -194 -410
-92 -208 -170 -378 -173 -378 -3 1 -55 103 -117 228 -398 807 -775 1560 -790
1577 -41 47 -72 60 -115 48z"/>
</g>
</svg>
